<?xml version="1.0" encoding="UTF-8"?>
<!DOCTYPE svg PUBLIC "-//W3C//DTD SVG 1.1//EN" "http://www.w3.org/Graphics/SVG/1.1/DTD/svg11.dtd">
<!-- Creator: CorelDRAW 2019 (64-Bit) -->
<svg xmlns="http://www.w3.org/2000/svg" xml:space="preserve" width="451.499mm" height="45.503mm" version="1.1" style="shape-rendering:geometricPrecision; text-rendering:geometricPrecision; image-rendering:optimizeQuality; fill-rule:evenodd; clip-rule:evenodd"
viewBox="0 0 45149.9 4550.3"
 xmlns:xlink="http://www.w3.org/1999/xlink">
 <defs>
  <style type="text/css">
   <![CDATA[
    .fil0 {fill:#00a4e742}
   ]]>
  </style>
 </defs>
 <g id="Layer_x0020_1">
  <metadata id="CorelCorpID_0Corel-Layer"/>
  <path class="fil0" d="M-6.5 4591.54l45149.9 0 0 -2962.96c-155.9,12.97 -440.28,129.23 -594.91,181.1 -1801.35,604.27 -4850.83,1083.16 -6810.18,1232.15 -5617.66,427.19 -9841.96,-106.53 -15155.96,-1427.15 -859.37,-213.57 -1711,-436.21 -2591.4,-618.48 -1060.89,-219.63 -4378.7,-775.3 -5605.97,-813.77l-3068.73 -141.15c-2182.62,0 -4140.17,86.03 -6051.75,368 -968.43,142.85 -1818.49,294.76 -2722.49,487.39l-2227.23 594.64c-107.82,34.71 -197.55,91.7 -321.28,102l0 2998.23z"/>
 </g>
</svg>
